<?xml version="1.0" encoding="utf-8"?><svg version="1.1" id="Layer_1" xmlns="http://www.w3.org/2000/svg" xmlns:xlink="http://www.w3.org/1999/xlink" x="0px" y="0px" viewBox="0 0 98.94 122.88" style="enable-background:new 0 0 98.94 122.88" xml:space="preserve"><style type="text/css"><![CDATA[
	.st0{fill-rule:evenodd;clip-rule:evenodd;fill:#F40407;}
]]></style><g><path class="st0" d="M63.49,2.71c11.59-6.04,25.94-1.64,32.04,9.83c6.1,11.47,1.65,25.66-9.94,31.7l-9.53,5.01 c8.21,0.3,16.04,4.81,20.14,12.52c6.1,11.47,1.66,25.66-9.94,31.7l-50.82,26.7c-11.59,6.04-25.94,1.64-32.04-9.83 c-6.1-11.47-1.65-25.66,9.94-31.7l9.53-5.01c-8.21-0.3-16.04-4.81-20.14-12.52c-6.1-11.47-1.65-25.66,9.94-31.7L63.49,2.71 L63.49,2.71z M36.06,42.53l30.76,18.99l-30.76,18.9V42.53L36.06,42.53z"/></g></svg>